<svg xmlns="http://www.w3.org/2000/svg" viewBox="0 0 420 100">
  <g transform="translate(.946)">
    <circle cx="173.2" cy="24" r="19" fill="#f2f2f2"/>
    <path d="M179.6 16.4c.7 0 1.3.6 1.3 1.3v12.4l-2.6 2.7h-10.2c-.7 0-1.3-.6-1.3-1.3V16.4h12.8zm-13.6-.9v15.9c0 1.2 1 2.2 2.2 2.2h10.6l.1-.1 2.9-2.9.1-.1V17.7c0-1.2-1-2.2-2.2-2.2H166z" fill="#6d6d6d" stroke="#6d6d6d" stroke-width=".5" stroke-linecap="round" stroke-linejoin="round"/>
    <path d="M177.6 28c-.6 0-1.1.5-1.1 1v2.1c0 .2.2.3.4.3s.4-.2.4-.3V29c0-.2.2-.3.4-.3h1.6c.2 0 .4-.2.4-.3 0-.2-.2-.3-.4-.3l-1.7-.1z" fill="#6d6d6d" stroke="#6d6d6d" stroke-width=".5"/>
    <path d="M178.6 19.4c.2 0 .4-.2.4-.4s-.2-.4-.4-.4h-9.1c-.2 0-.4.2-.4.4s.2.4.4.4h9.1zM178.6 22c.2 0 .4-.2.4-.4s-.2-.4-.4-.4h-9.1c-.2 0-.4.2-.4.4s.2.4.4.4h9.1zM178.6 25c.2 0 .4-.2.4-.4s-.2-.4-.4-.4h-9.1c-.2 0-.4.2-.4.4s.2.4.4.4h9.1z" fill="#6d6d6d" stroke="#6d6d6d" stroke-width=".5" stroke-linecap="round" stroke-linejoin="round"/>
  </g>
  <g>
    <circle cx="26" cy="24" r="19" fill="#f2f2f2"/>
    <circle cx="26" cy="21.9" r="1.5" fill="#6d6d6d"/>
    <path d="M35.1 16.3H16.9c-.4 0-.6.3-.6.7v13c0 .4.3.7.6.7h18.2c.4 0 .6-.3.6-.7V17c.1-.4-.2-.7-.6-.7zm-1.6 1.4l-6.1 6.2c-.8.6-2.1.6-2.8 0l-6.1-6.2h15zM17.6 29.3V18.6l6.2 6.4v.1c.6.5 1.4.8 2.2.8.8 0 1.6-.3 2.2-.8V25l6.2-6.4v10.7H17.6z" fill="#6d6d6d"/>
  </g>
  <g transform="translate(.27)">
    <circle cx="124.5" cy="25" r="19" fill="#f2f2f2"/>
    <path d="M132.2 20.5h-1.5v-.7c0-3.1-2.5-5.6-5.7-5.6s-5.7 2.5-5.7 5.6v.7h-1.5c-1.1 0-2.1.9-2.1 2v9.2c0 1.1.9 2 2.1 2h14.3c1.1 0 2.1-.9 2.1-2v-9.2c.1-1.1-.8-2-2-2zm-11.4-.7c0-2.3 1.9-4.2 4.3-4.2s4.3 1.9 4.3 4.2v.7h-8.5v-.7zm12.1 11.9c0 .4-.3.6-.7.6h-14.3c-.4 0-.7-.3-.7-.6v-9.2c0-.4.3-.6.7-.6h14.3c.4 0 .7.3.7.6v9.2z" fill="#6d6d6d"/>
    <path d="M125 24.5c-1 0-1.9.7-2 1.6-.2.9.4 1.8 1.3 2.2V30c0 .4.3.6.7.6.4 0 .7-.3.7-.6v-1.7c.9-.3 1.5-1.2 1.3-2.2-.1-.9-1-1.6-2-1.6zm0 2.6c-.4 0-.7-.3-.7-.6 0-.4.3-.6.7-.6.4 0 .7.3.7.6s-.3.6-.7.6z" fill="#6d6d6d"/>
  </g>
  <g transform="translate(.135)">
    <circle cx="75.3" cy="25" r="19" fill="#f2f2f2"/>
    <path d="M75.7 27.4v.5c0 .5-.3.7-.8.7s-.8-.2-.8-.7v-.5c0-1.2.2-1.8.7-2.4.4-.5.6-.7 1.6-1.4 1.3-1 1.7-1.5 1.7-2.4 0-1.4-1-2.3-2.7-2.3-1.7 0-2.6.9-3 2.1-.1.4-.4.6-.8.6h-.3c-.3-.1-.7-.3-.7-.7 0-.1 0-.2.1-.3.3-.8.7-1.6 1.4-2.1.8-.7 1.9-1.1 3.4-1.1 2.7 0 4.4 1.4 4.4 3.7 0 1.5-.7 2.4-2.1 3.4-1.6 1-2.1 1.4-2.1 2.9zM75.3 29.6c.8 0 1.5.6 1.5 1.5s-.7 1.5-1.5 1.5c-.9 0-1.5-.6-1.5-1.5-.1-.9.6-1.5 1.5-1.5z" fill="#6d6d6d"/>
  </g>
  <g transform="translate(.952)">
    <circle cx="123.8" cy="74.2" r="19" fill="#e62e2e" fill-opacity=".07"/>
    <linearGradient id="a" gradientUnits="userSpaceOnUse" x1="-547.271" y1="460.453" x2="-547.271" y2="459.859" gradientTransform="matrix(31.1351 0 0 -32.8649 17163.707 15196.189)">
      <stop offset="0" stop-color="#ff0017"/>
      <stop offset="1" stop-color="#dc041e"/>
    </linearGradient>
    <path d="M131.5 69.7H130V69c0-3.1-2.5-5.6-5.7-5.6s-5.7 2.5-5.7 5.6v.7h-1.5c-1.1 0-2.1.9-2.1 2v9.2c0 1.1.9 2 2.1 2h14.3c1.1 0 2.1-.9 2.1-2v-9.2c.1-1.1-.8-2-2-2zm-11.4-.7c0-2.3 1.9-4.2 4.3-4.2s4.3 1.9 4.3 4.2v.7h-8.5V69zm12.1 11.9c0 .4-.3.6-.7.6h-14.3c-.4 0-.7-.3-.7-.6v-9.2c0-.4.3-.6.7-.6h14.3c.4 0 .7.3.7.6v9.2z" fill="url(#a)"/>
    <linearGradient id="b" gradientUnits="userSpaceOnUse" x1="-473.135" y1="438.278" x2="-473.135" y2="437.684" gradientTransform="matrix(6.9189 0 0 -10.3784 3397.942 4622.35)">
      <stop offset="0" stop-color="#ff0017"/>
      <stop offset="1" stop-color="#dc041e"/>
    </linearGradient>
    <path d="M124.4 73.7c-1 0-1.9.7-2 1.6-.2.9.4 1.8 1.3 2.2v1.7c0 .4.3.6.7.6.4 0 .7-.3.7-.6v-1.7c.9-.3 1.5-1.2 1.3-2.2-.2-.9-1-1.6-2-1.6zm0 2.6c-.4 0-.7-.3-.7-.6s.3-.6.7-.6c.4 0 .7.3.7.6s-.4.6-.7.6z" fill="url(#b)"/>
  </g>
  <circle cx="26" cy="74.2" r="19" fill="#e62e2e" fill-opacity=".07"/>
  <linearGradient id="c" gradientUnits="userSpaceOnUse" x1="-551.245" y1="457.722" x2="-551.245" y2="457.128" gradientTransform="matrix(34.5946 0 0 -25.9459 19095.568 11942.567)">
    <stop offset="0" stop-color="#ff0017"/>
    <stop offset="1" stop-color="#dc041e"/>
  </linearGradient>
  <path d="M35.1 66.5H15.9c-.4 0-.7.3-.7.7v13.9c0 .4.3.7.7.7h19.2c.4 0 .7-.3.7-.7V67.3c0-.4-.3-.8-.7-.8zm-1.7 1.6L27 74.7c-.8.7-2.2.7-3 0L17.6 68h15.8zM16.6 80.5V69l6.5 6.8s.1 0 .1.1c.7.5 1.5.8 2.3.8.9 0 1.7-.3 2.3-.8 0 0 .1 0 .1-.1l6.5-6.8v11.4H16.6z" fill="url(#c)"/>
  <g transform="translate(.397)">
    <circle cx="173.8" cy="74.2" r="19" fill="#e62e2e" fill-opacity=".07"/>
    <linearGradient id="d" gradientUnits="userSpaceOnUse" x1="-541.358" y1="459.672" x2="-541.358" y2="459.078" gradientTransform="matrix(26.729 0 0 -30.4608 14644.418 14067.713)">
      <stop offset="0" stop-color="#ff0017"/>
      <stop offset="1" stop-color="#dc041e"/>
    </linearGradient>
    <linearGradient id="e" gradientUnits="userSpaceOnUse" x1="-541.358" y1="459.74" x2="-541.358" y2="459.01" gradientTransform="matrix(26.729 0 0 -30.4608 14644.418 14067.713)">
      <stop offset="0" stop-color="#ff0017"/>
      <stop offset="1" stop-color="#dc041e"/>
    </linearGradient>
    <path d="M180.2 66.6c.7 0 1.3.6 1.3 1.3v12.4l-2.6 2.7h-10.2c-.7 0-1.3-.6-1.3-1.3V66.6h12.8zm-13.7-.8v15.9c0 1.2 1 2.2 2.2 2.2h10.6l.1-.1 2.9-2.9.1-.1V67.9c0-1.2-1-2.2-2.2-2.2h-13.7z" fill="url(#d)" stroke="url(#e)" stroke-width=".5" stroke-linecap="round" stroke-linejoin="round"/>
    <linearGradient id="f" gradientUnits="userSpaceOnUse" x1="-428.423" y1="413.18" x2="-428.423" y2="412.586" gradientTransform="matrix(5.0656 0 0 -5.8201 2348.794 2483.008)">
      <stop offset="0" stop-color="#ff0017"/>
      <stop offset="1" stop-color="#dc041e"/>
    </linearGradient>
    <linearGradient id="g" gradientUnits="userSpaceOnUse" x1="-428.423" y1="413.248" x2="-428.423" y2="412.519" gradientTransform="matrix(5.0656 0 0 -5.8201 2348.794 2483.008)">
      <stop offset="0" stop-color="#ff0017"/>
      <stop offset="1" stop-color="#dc041e"/>
    </linearGradient>
    <path d="M178.1 78.2c-.6 0-1.1.5-1.1 1v2.1c0 .2.2.3.4.3s.4-.2.4-.3v-2.1c0-.2.2-.3.4-.3h1.6c.2 0 .4-.2.4-.3 0-.2-.2-.3-.4-.3l-1.7-.1z" fill="url(#f)" stroke="url(#g)" stroke-width=".5" stroke-linecap="round" stroke-linejoin="round"/>
    <linearGradient id="h" gradientUnits="userSpaceOnUse" x1="-525.582" y1="234.547" x2="-525.582" y2="233.954" gradientTransform="matrix(16.7615 0 0 -1.4506 8984.12 409.005)">
      <stop offset="0" stop-color="#ff0017"/>
      <stop offset="1" stop-color="#dc041e"/>
    </linearGradient>
    <linearGradient id="i" gradientUnits="userSpaceOnUse" x1="-525.582" y1="234.615" x2="-525.582" y2="233.886" gradientTransform="matrix(16.7615 0 0 -1.4506 8984.12 409.005)">
      <stop offset="0" stop-color="#ff0017"/>
      <stop offset="1" stop-color="#dc041e"/>
    </linearGradient>
    <path d="M179.1 69.6c.2 0 .4-.2.4-.4s-.2-.4-.4-.4H170c-.2 0-.4.2-.4.4s.2.4.4.4h9.1z" fill="url(#h)" stroke="url(#i)" stroke-width=".5" stroke-linecap="round" stroke-linejoin="round"/>
    <linearGradient id="j" gradientUnits="userSpaceOnUse" x1="-525.582" y1="235.651" x2="-525.582" y2="235.058" gradientTransform="matrix(16.7615 0 0 -1.4499 8984.12 413.023)">
      <stop offset="0" stop-color="#ff0017"/>
      <stop offset="1" stop-color="#dc041e"/>
    </linearGradient>
    <linearGradient id="k" gradientUnits="userSpaceOnUse" x1="-525.582" y1="235.719" x2="-525.582" y2="234.99" gradientTransform="matrix(16.7615 0 0 -1.4499 8984.12 413.023)">
      <stop offset="0" stop-color="#ff0017"/>
      <stop offset="1" stop-color="#dc041e"/>
    </linearGradient>
    <path d="M179.1 72.2c.2 0 .4-.2.4-.4s-.2-.4-.4-.4H170c-.2 0-.4.2-.4.4s.2.4.4.4h9.1z" fill="url(#j)" stroke="url(#k)" stroke-width=".5" stroke-linecap="round" stroke-linejoin="round"/>
    <linearGradient id="l" gradientUnits="userSpaceOnUse" x1="-525.582" y1="237.074" x2="-525.582" y2="236.48" gradientTransform="matrix(16.7615 0 0 -1.4499 8984.12 418.1)">
      <stop offset="0" stop-color="#ff0017"/>
      <stop offset="1" stop-color="#dc041e"/>
    </linearGradient>
    <linearGradient id="m" gradientUnits="userSpaceOnUse" x1="-525.582" y1="237.141" x2="-525.582" y2="236.412" gradientTransform="matrix(16.7615 0 0 -1.4499 8984.12 418.1)">
      <stop offset="0" stop-color="#ff0017"/>
      <stop offset="1" stop-color="#dc041e"/>
    </linearGradient>
    <path d="M179.1 75.2c.2 0 .4-.2.4-.4s-.2-.4-.4-.4H170c-.2 0-.4.2-.4.4s.2.4.4.4h9.1z" fill="url(#l)" stroke="url(#m)" stroke-width=".5" stroke-linecap="round" stroke-linejoin="round"/>
  </g>
  <g transform="translate(.476)">
    <circle cx="74.9" cy="74.2" r="19" fill="#e62e2e" fill-opacity=".07"/>
    <linearGradient id="n" gradientUnits="userSpaceOnUse" x1="-535.868" y1="456.715" x2="-535.868" y2="456.121" gradientTransform="matrix(19.027 0 0 -24.2162 10270.897 11124.405)">
      <stop offset="0" stop-color="#ff0017"/>
      <stop offset="1" stop-color="#dc041e"/>
    </linearGradient>
    <path d="M75.5 77.3v.6c0 .6-.4.9-1 .9s-1-.3-1-.9v-.7c0-1.5.2-2.3.8-3.1.4-.6.7-.9 2-1.8 1.6-1.2 2.1-1.9 2.1-3.1 0-1.8-1.3-2.9-3.4-2.9-2 0-3.2 1.1-3.7 2.7-.2.6-.5.8-.9.8H70c-.4-.1-.8-.4-.8-.9 0-.1 0-.3.1-.4.3-1 .9-2 1.7-2.7 1-.9 2.3-1.4 4.2-1.4 3.3 0 5.4 1.8 5.4 4.7 0 2-.9 3.1-2.6 4.3-1.9 1.6-2.5 2.1-2.5 3.9z" fill="url(#n)"/>
    <linearGradient id="o" gradientUnits="userSpaceOnUse" x1="-391.28" y1="374.053" x2="-391.28" y2="373.459" gradientTransform="matrix(3.4595 0 0 -3.4595 1428.026 1373.92)">
      <stop offset="0" stop-color="#ff0017"/>
      <stop offset="1" stop-color="#dc041e"/>
    </linearGradient>
    <path d="M74.4 79.9c.6 0 1 .4 1 1s-.5 1-1 1c-.6 0-1-.4-1-1s.4-1 1-1z" fill="url(#o)"/>
  </g>
  <g>
    <circle cx="334.7" cy="74.4" r="19" opacity=".5" fill="#e62e2e" fill-opacity=".07"/>
    <linearGradient id="p" gradientUnits="userSpaceOnUse" x1="-539.545" y1="460.449" x2="-539.545" y2="459.855" gradientTransform="matrix(31.1351 0 0 -32.8649 17134.055 15196.189)">
      <stop offset="0" stop-color="#ff0017"/>
      <stop offset="1" stop-color="#dc041e"/>
    </linearGradient>
    <path d="M342.4 69.9h-1.5v-.7c0-3.1-2.5-5.6-5.7-5.6s-5.7 2.5-5.7 5.6v.7H328c-1.1 0-2.1.9-2.1 2v9.2c0 1.1.9 2 2.1 2h14.3c1.1 0 2.1-.9 2.1-2v-9.2c.1-1.1-.8-2-2-2zm-11.4-.7c0-2.3 1.9-4.2 4.3-4.2s4.3 1.9 4.3 4.2v.7H331v-.7zm12.1 11.9c0 .4-.3.6-.7.6h-14.3c-.4 0-.7-.3-.7-.6v-9.2c0-.4.3-.6.7-.6h14.3c.4 0 .7.3.7.6v9.2z" fill="url(#p)"/>
    <linearGradient id="q" gradientUnits="userSpaceOnUse" x1="-441.703" y1="438.266" x2="-441.703" y2="437.672" gradientTransform="matrix(6.9189 0 0 -10.3784 3391.352 4622.35)">
      <stop offset="0" stop-color="#ff0017"/>
      <stop offset="1" stop-color="#dc041e"/>
    </linearGradient>
    <path d="M335.2 73.9c-1 0-1.9.7-2 1.6-.2.9.4 1.8 1.3 2.2v1.7c0 .4.3.6.7.6.4 0 .7-.3.7-.6v-1.7c.9-.3 1.5-1.2 1.3-2.2-.1-1-1-1.6-2-1.6zm0 2.6c-.4 0-.7-.3-.7-.6s.3-.6.7-.6c.4 0 .7.3.7.6s-.3.6-.7.6z" fill="url(#q)"/>
  </g>
  <g>
    <circle cx="236" cy="74.4" r="19" opacity=".5" fill="#e62e2e" fill-opacity=".07"/>
    <linearGradient id="r" gradientUnits="userSpaceOnUse" x1="-545.174" y1="457.717" x2="-545.174" y2="457.123" gradientTransform="matrix(34.5946 0 0 -25.9459 19095.568 11942.567)">
      <stop offset="0" stop-color="#ff0017"/>
      <stop offset="1" stop-color="#dc041e"/>
    </linearGradient>
    <path d="M245.1 66.7h-19.2c-.4 0-.7.3-.7.7v13.9c0 .4.3.7.7.7h19.2c.4 0 .7-.3.7-.7V67.4c0-.4-.3-.7-.7-.7zm-1.7 1.5l-6.4 6.7c-.8.7-2.2.7-3 0l-6.4-6.7h15.8zm-16.8 12.4V69.2l6.5 6.8s.1 0 .1.1c.7.5 1.5.8 2.3.8.9 0 1.7-.3 2.3-.8 0 0 .1 0 .1-.1l6.5-6.8v11.4h-17.8z" fill="url(#r)"/>
  </g>
  <g>
    <circle cx="384.1" cy="74.4" r="19" opacity=".5" fill="#e62e2e" fill-opacity=".07"/>
    <linearGradient id="s" gradientUnits="userSpaceOnUse" x1="-533.093" y1="459.668" x2="-533.093" y2="459.074" gradientTransform="matrix(26.729 0 0 -30.4608 14633.811 14067.713)">
      <stop offset="0" stop-color="#ff0017"/>
      <stop offset="1" stop-color="#dc041e"/>
    </linearGradient>
    <linearGradient id="t" gradientUnits="userSpaceOnUse" x1="-533.093" y1="459.735" x2="-533.093" y2="459.006" gradientTransform="matrix(26.729 0 0 -30.4608 14633.811 14067.713)">
      <stop offset="0" stop-color="#ff0017"/>
      <stop offset="1" stop-color="#dc041e"/>
    </linearGradient>
    <path d="M390.5 66.7c.7 0 1.3.6 1.3 1.3v12.4l-2.6 2.7H379c-.7 0-1.3-.6-1.3-1.3V66.7h12.8zm-13.7-.8v15.9c0 1.2 1 2.2 2.2 2.2h10.6l.1-.1 2.9-2.9.1-.1V68c0-1.2-1-2.2-2.2-2.2h-13.7z" fill="url(#s)" stroke="url(#t)" stroke-width=".5" stroke-linecap="round" stroke-linejoin="round"/>
    <linearGradient id="u" gradientUnits="userSpaceOnUse" x1="-386.51" y1="413.159" x2="-386.51" y2="412.565" gradientTransform="matrix(5.0656 0 0 -5.8201 2346.784 2483.008)">
      <stop offset="0" stop-color="#ff0017"/>
      <stop offset="1" stop-color="#dc041e"/>
    </linearGradient>
    <linearGradient id="v" gradientUnits="userSpaceOnUse" x1="-386.51" y1="413.226" x2="-386.51" y2="412.497" gradientTransform="matrix(5.0656 0 0 -5.8201 2346.784 2483.008)">
      <stop offset="0" stop-color="#ff0017"/>
      <stop offset="1" stop-color="#dc041e"/>
    </linearGradient>
    <path d="M388.5 78.4c-.6 0-1.1.5-1.1 1v2.1c0 .2.2.3.4.3s.4-.2.4-.3v-2.1c0-.2.2-.3.4-.3h1.6c.2 0 .4-.2.4-.3 0-.2-.2-.3-.4-.3l-1.7-.1z" fill="url(#u)" stroke="url(#v)" stroke-width=".5" stroke-linecap="round" stroke-linejoin="round"/>
    <linearGradient id="w" gradientUnits="userSpaceOnUse" x1="-512.638" y1="234.461" x2="-512.638" y2="233.868" gradientTransform="matrix(16.7615 0 0 -1.4506 8977.469 409.005)">
      <stop offset="0" stop-color="#ff0017"/>
      <stop offset="1" stop-color="#dc041e"/>
    </linearGradient>
    <linearGradient id="x" gradientUnits="userSpaceOnUse" x1="-512.638" y1="234.529" x2="-512.638" y2="233.8" gradientTransform="matrix(16.7615 0 0 -1.4506 8977.469 409.005)">
      <stop offset="0" stop-color="#ff0017"/>
      <stop offset="1" stop-color="#dc041e"/>
    </linearGradient>
    <path d="M389.4 69.8c.2 0 .4-.2.4-.4s-.2-.4-.4-.4h-9.1c-.2 0-.4.2-.4.4s.2.4.4.4h9.1z" fill="url(#w)" stroke="url(#x)" stroke-width=".5" stroke-linecap="round" stroke-linejoin="round"/>
    <linearGradient id="y" gradientUnits="userSpaceOnUse" x1="-512.638" y1="235.565" x2="-512.638" y2="234.971" gradientTransform="matrix(16.7615 0 0 -1.4499 8977.469 413.023)">
      <stop offset="0" stop-color="#ff0017"/>
      <stop offset="1" stop-color="#dc041e"/>
    </linearGradient>
    <linearGradient id="z" gradientUnits="userSpaceOnUse" x1="-512.638" y1="235.633" x2="-512.638" y2="234.904" gradientTransform="matrix(16.7615 0 0 -1.4499 8977.469 413.023)">
      <stop offset="0" stop-color="#ff0017"/>
      <stop offset="1" stop-color="#dc041e"/>
    </linearGradient>
    <path d="M389.4 72.3c.2 0 .4-.2.4-.4s-.2-.4-.4-.4h-9.1c-.2 0-.4.2-.4.4s.2.4.4.4h9.1z" fill="url(#y)" stroke="url(#z)" stroke-width=".5" stroke-linecap="round" stroke-linejoin="round"/>
    <linearGradient id="A" gradientUnits="userSpaceOnUse" x1="-512.638" y1="236.987" x2="-512.638" y2="236.394" gradientTransform="matrix(16.7615 0 0 -1.4499 8977.469 418.1)">
      <stop offset="0" stop-color="#ff0017"/>
      <stop offset="1" stop-color="#dc041e"/>
    </linearGradient>
    <linearGradient id="B" gradientUnits="userSpaceOnUse" x1="-512.638" y1="237.055" x2="-512.638" y2="236.326" gradientTransform="matrix(16.7615 0 0 -1.4499 8977.469 418.1)">
      <stop offset="0" stop-color="#ff0017"/>
      <stop offset="1" stop-color="#dc041e"/>
    </linearGradient>
    <path d="M389.4 75.4c.2 0 .4-.2.4-.4s-.2-.4-.4-.4h-9.1c-.2 0-.4.2-.4.4s.2.4.4.4h9.1z" fill="url(#A)" stroke="url(#B)" stroke-width=".5" stroke-linecap="round" stroke-linejoin="round"/>
  </g>
  <g>
    <circle cx="285.4" cy="74.4" r="19" opacity=".5" fill="#e62e2e" fill-opacity=".07"/>
    <linearGradient id="C" gradientUnits="userSpaceOnUse" x1="-524.332" y1="456.71" x2="-524.332" y2="456.116" gradientTransform="matrix(19.027 0 0 -24.2162 10261.837 11124.405)">
      <stop offset="0" stop-color="#ff0017"/>
      <stop offset="1" stop-color="#dc041e"/>
    </linearGradient>
    <path d="M286 77.4v.6c0 .6-.4.9-1 .9s-1-.3-1-.9v-.7c0-1.5.2-2.3.8-3.1.4-.6.7-.9 2-1.8 1.6-1.2 2.1-1.9 2.1-3.1 0-1.8-1.3-2.9-3.4-2.9-2 0-3.2 1.1-3.7 2.7-.2.6-.5.8-.9.8h-.4c-.4-.1-.8-.4-.8-.9 0-.1 0-.3.1-.4.3-1 .9-2 1.7-2.7 1-.9 2.3-1.4 4.2-1.4 3.3 0 5.4 1.8 5.4 4.7 0 2-.9 3.1-2.6 4.3-1.9 1.6-2.5 2.1-2.5 3.9z" fill="url(#C)"/>
    <linearGradient id="D" gradientUnits="userSpaceOnUse" x1="-329.973" y1="374.017" x2="-329.973" y2="373.423" gradientTransform="matrix(3.4595 0 0 -3.4595 1426.378 1373.92)">
      <stop offset="0" stop-color="#ff0017"/>
      <stop offset="1" stop-color="#dc041e"/>
    </linearGradient>
    <path d="M284.9 80c.6 0 1 .4 1 1s-.5 1-1 1c-.6 0-1-.4-1-1-.1-.6.4-1 1-1z" fill="url(#D)"/>
  </g>
  <g transform="translate(.27)">
    <circle cx="334.4" cy="24" r="19" opacity=".5" fill="#f2f2f2"/>
    <path d="M342.1 19.5h-1.5v-.7c0-3.1-2.5-5.6-5.7-5.6s-5.7 2.5-5.7 5.6v.7h-1.5c-1.1 0-2.1.9-2.1 2v9.2c0 1.1.9 2 2.1 2H342c1.1 0 2.1-.9 2.1-2v-9.2c.1-1.1-.9-2-2-2zm-11.4-.7c0-2.3 1.9-4.2 4.3-4.2s4.3 1.9 4.3 4.2v.7h-8.5v-.7zm12.1 11.9c0 .4-.3.6-.7.6h-14.3c-.4 0-.7-.3-.7-.6v-9.2c0-.4.3-.6.7-.6h14.3c.4 0 .7.3.7.6v9.2z" fill="#6d6d6d"/>
    <path d="M334.9 23.5c-1 0-1.9.7-2 1.6-.2.9.4 1.8 1.3 2.2V29c0 .4.3.6.7.6s.7-.3.7-.6v-1.7c.9-.3 1.5-1.2 1.3-2.2-.1-.9-1-1.6-2-1.6zm0 2.6c-.4 0-.7-.3-.7-.6 0-.4.3-.6.7-.6s.7.3.7.6-.3.6-.7.6z" fill="#6d6d6d"/>
  </g>
  <g>
    <circle cx="235.8" cy="24" r="19" opacity=".5" fill="#f2f2f2"/>
    <circle cx="235.8" cy="21.9" r="1.5" fill="#6d6d6d"/>
    <path d="M245 16.3h-18.2c-.4 0-.6.3-.6.7v13c0 .4.3.7.6.7H245c.4 0 .6-.3.6-.7V17c0-.4-.3-.7-.6-.7zm-1.7 1.4l-6.1 6.2c-.8.6-2.1.6-2.8 0l-6.1-6.2h15zm-15.9 11.6V18.6l6.2 6.4v.1c.6.5 1.4.8 2.2.8.8 0 1.6-.3 2.2-.8V25l6.2-6.4v10.7h-16.8z" fill="#6d6d6d"/>
  </g>
  <g>
    <g transform="translate(.135)">
      <circle cx="285.1" cy="24" r="19" opacity=".5" fill="#f2f2f2"/>
      <path d="M285.6 26.4v.5c0 .5-.3.7-.8.7s-.8-.2-.8-.7v-.5c0-1.2.2-1.8.7-2.4.4-.5.6-.7 1.6-1.4 1.3-1 1.7-1.5 1.7-2.4 0-1.4-1-2.3-2.7-2.3-1.7 0-2.6.9-3 2.1-.1.4-.4.6-.8.6h-.3c-.3-.1-.7-.3-.7-.7 0-.1 0-.2.1-.3.3-.8.7-1.6 1.4-2.1.8-.7 1.9-1.1 3.4-1.1 2.7 0 4.4 1.4 4.4 3.7 0 1.5-.7 2.4-2.1 3.4-1.6 1-2.1 1.4-2.1 2.9zM285.1 28.6c.8 0 1.5.6 1.5 1.5s-.7 1.5-1.5 1.5c-.9 0-1.5-.6-1.5-1.5s.7-1.5 1.5-1.5z" fill="#6d6d6d"/>
    </g>
  </g>
  <g>
    <g transform="translate(.946)">
      <circle cx="383.2" cy="24" r="19" opacity=".5" fill="#f2f2f2"/>
      <path d="M389.5 16.4c.7 0 1.3.6 1.3 1.3v12.4l-2.6 2.7H378c-.7 0-1.3-.6-1.3-1.3V16.4h12.8zm-13.6-.9v15.9c0 1.2 1 2.2 2.2 2.2h10.6l.1-.1 2.9-2.9.1-.1V17.7c0-1.2-1-2.2-2.2-2.2h-13.7z" fill="#6d6d6d" stroke="#6d6d6d" stroke-width=".5" stroke-linecap="round" stroke-linejoin="round"/>
      <path d="M387.5 28c-.6 0-1.1.5-1.1 1v2.1c0 .2.2.3.4.3s.4-.2.4-.3V29c0-.2.2-.3.4-.3h1.6c.2 0 .4-.2.4-.3 0-.2-.2-.3-.4-.3l-1.7-.1z" fill="#6d6d6d" stroke="#6d6d6d" stroke-width=".5"/>
      <path d="M388.5 19.4c.2 0 .4-.2.4-.4s-.2-.4-.4-.4h-9.1c-.2 0-.4.2-.4.4s.2.4.4.4h9.1zM388.5 22c.2 0 .4-.2.4-.4s-.2-.4-.4-.4h-9.1c-.2 0-.4.2-.4.4s.2.4.4.4h9.1zM388.5 25c.2 0 .4-.2.4-.4s-.2-.4-.4-.4h-9.1c-.2 0-.4.2-.4.4s.2.4.4.4h9.1z" fill="#6d6d6d" stroke="#6d6d6d" stroke-width=".5" stroke-linecap="round" stroke-linejoin="round"/>
    </g>
  </g>
</svg>
