<svg width="30" height="19" xmlns="http://www.w3.org/2000/svg">
  <g fill="none" fill-rule="evenodd">
    <path fill="#FFF" d="M-382-239H98v763h-480z"/>
    <path d="M-322-14H38v44h-360z"/>
    <path d="M25.91 19H4.09C1.832 19 0 17.177 0 14.929V4.07C0 1.823 1.831 0 4.09 0h21.82C28.168 0 30 1.823 30 4.071V14.93C30 17.177 28.169 19 25.91 19zm1.363-14.929c0-.749-.611-1.357-1.364-1.357H4.091a1.36 1.36 0 0 0-1.364 1.357V14.93c0 .749.611 1.357 1.364 1.357h21.818a1.36 1.36 0 0 0 1.364-1.357V4.07zm-3.41 6.786H22.5a.68.68 0 0 1-.682-.678V8.82a.68.68 0 0 1 .682-.678h1.364a.68.68 0 0 1 .681.678v1.358a.68.68 0 0 1-.681.678zm0-4.071H22.5a.68.68 0 0 1-.682-.679V4.75a.68.68 0 0 1 .682-.679h1.364a.68.68 0 0 1 .681.679v1.357a.68.68 0 0 1-.681.679zm-2.045 7.464a.68.68 0 0 1-.682.679H8.864a.68.68 0 0 1-.682-.679v-1.357a.68.68 0 0 1 .682-.679h12.272a.68.68 0 0 1 .682.679v1.357zm-2.045-3.393h-1.364a.68.68 0 0 1-.682-.678V8.82a.68.68 0 0 1 .682-.678h1.364a.68.68 0 0 1 .682.678v1.358a.68.68 0 0 1-.682.678zm0-4.071h-1.364a.68.68 0 0 1-.682-.679V4.75a.68.68 0 0 1 .682-.679h1.364a.68.68 0 0 1 .682.679v1.357a.68.68 0 0 1-.682.679zm-4.091 4.071h-1.364a.68.68 0 0 1-.682-.678V8.82a.68.68 0 0 1 .682-.678h1.364a.68.68 0 0 1 .682.678v1.358a.68.68 0 0 1-.682.678zm0-4.071h-1.364a.68.68 0 0 1-.682-.679V4.75a.68.68 0 0 1 .682-.679h1.364a.68.68 0 0 1 .682.679v1.357a.68.68 0 0 1-.682.679zm-4.091 4.071h-1.364a.68.68 0 0 1-.682-.678V8.82a.68.68 0 0 1 .682-.678h1.364a.68.68 0 0 1 .682.678v1.358a.68.68 0 0 1-.682.678zm0-4.071h-1.364a.68.68 0 0 1-.682-.679V4.75a.68.68 0 0 1 .682-.679h1.364a.68.68 0 0 1 .682.679v1.357a.68.68 0 0 1-.682.679zM7.5 10.857H6.136a.68.68 0 0 1-.681-.678V8.82a.68.68 0 0 1 .681-.678H7.5a.68.68 0 0 1 .682.678v1.358a.68.68 0 0 1-.682.678zm0-4.071H6.136a.68.68 0 0 1-.681-.679V4.75a.68.68 0 0 1 .681-.679H7.5a.68.68 0 0 1 .682.679v1.357a.68.68 0 0 1-.682.679z" fill="#424242" fill-rule="nonzero"/>
  </g>
</svg>
